<?xml version="1.0" standalone="no"?>
<!DOCTYPE svg PUBLIC "-//W3C//DTD SVG 20010904//EN"
 "http://www.w3.org/TR/2001/REC-SVG-20010904/DTD/svg10.dtd">
<svg version="1.0" xmlns="http://www.w3.org/2000/svg"
 width="474.000000pt" height="474.000000pt" viewBox="0 0 474.000000 474.000000"
 preserveAspectRatio="xMidYMid meet">
<metadata>
Created by potrace 1.14, written by Peter Selinger 2001-2017
</metadata>
<g transform="translate(0.000000,474.000000) scale(0.100000,-0.100000)"
fill="#000000" stroke="none">
<path d="M2287 4353 c-43 -131 -115 -353 -161 -493 -190 -584 -246 -756 -246
-765 0 -13 393 -13 402 -1 3 6 23 63 44 128 21 65 41 115 46 110 4 -4 25 -61
46 -127 l38 -119 202 0 c121 -1 202 3 202 9 0 8 -67 216 -319 985 -37 113 -89
274 -117 357 -27 84 -52 153 -55 153 -3 0 -40 -107 -82 -237z"/>
<path d="M27 2892 c-11 -2 9 -23 61 -61 87 -64 554 -402 610 -442 48 -33 761
-550 827 -599 60 -44 212 -155 263 -191 21 -14 195 -140 387 -279 193 -140
438 -317 545 -394 107 -77 200 -144 205 -149 6 -4 147 -107 315 -228 311 -225
379 -274 508 -368 40 -30 75 -52 77 -50 3 4 -145 466 -164 514 -5 11 -14 39
-21 62 -11 34 -24 50 -74 85 -34 23 -135 97 -226 163 -91 66 -176 128 -190
138 -21 15 -158 114 -225 163 -54 39 -571 413 -730 528 -99 71 -211 153 -250
181 -38 28 -95 69 -125 90 -30 22 -60 44 -67 50 -7 5 -131 96 -277 200 -146
105 -265 192 -265 195 -1 3 503 5 1119 5 616 0 1120 -2 1120 -5 0 -3 -40 -34
-88 -70 -326 -245 -578 -435 -582 -440 -3 -3 -39 -30 -80 -60 -122 -89 -119
-79 -47 -131 151 -111 460 -335 480 -349 13 -8 69 -49 126 -90 56 -41 110 -79
119 -85 9 -5 19 -12 22 -15 11 -13 71 -52 74 -49 1 2 -43 144 -99 314 l-102
310 35 24 c19 13 42 30 51 37 14 12 115 84 213 153 20 14 138 100 263 191 284
206 406 295 677 490 119 85 214 157 212 159 -4 4 -4674 7 -4697 3z"/>
<path d="M1378 1562 c-15 -42 -67 -201 -116 -352 -49 -151 -120 -367 -157
-480 -37 -113 -69 -212 -71 -220 -2 -8 -30 -96 -63 -194 -34 -99 -59 -181 -57
-183 2 -3 71 44 152 103 82 59 166 119 186 133 20 14 147 107 283 206 136 99
256 187 268 195 143 99 392 284 392 291 0 15 -318 239 -329 232 -6 -4 -56 -40
-110 -80 -55 -40 -101 -71 -103 -70 -1 2 16 61 38 131 23 70 37 131 33 136
-12 10 -296 215 -310 223 -6 4 -21 -25 -36 -71z"/>
</g>
</svg>
