<svg width="119" height="119" viewBox="0 0 119 119" fill="none" xmlns="http://www.w3.org/2000/svg">
<g filter="url(#filter0_d_2430_4624)">
<path d="M19.8535 81.0387V87.4849C19.8535 92.8139 32.8363 97.1465 48.8384 97.1465C64.8404 97.1465 77.8232 92.8139 77.8232 87.4849V81.0387C71.5885 85.4318 60.1908 87.4849 48.8384 87.4849C37.486 87.4849 26.0883 85.4318 19.8535 81.0387ZM68.1616 39.1768C84.1637 39.1768 97.1465 34.8441 97.1465 29.5151C97.1465 24.1861 84.1637 19.8535 68.1616 19.8535C52.1596 19.8535 39.1768 24.1861 39.1768 29.5151C39.1768 34.8441 52.1596 39.1768 68.1616 39.1768ZM19.8535 65.2027V72.9924C19.8535 78.3214 32.8363 82.6541 48.8384 82.6541C64.8404 82.6541 77.8232 78.3214 77.8232 72.9924V65.2027C71.5885 70.3355 60.1757 72.9924 48.8384 72.9924C37.5011 72.9924 26.0883 70.3355 19.8535 65.2027ZM82.6541 66.8633C91.3042 65.1877 97.1465 62.0778 97.1465 58.5V52.0539C93.6441 54.5297 88.4963 56.2205 82.6541 57.2621V66.8633ZM48.8384 44.0076C32.8363 44.0076 19.8535 49.412 19.8535 56.0846C19.8535 62.7572 32.8363 68.1616 48.8384 68.1616C64.8404 68.1616 77.8232 62.7572 77.8232 56.0846C77.8232 49.412 64.8404 44.0076 48.8384 44.0076ZM81.9445 52.5068C91.0023 50.8764 97.1465 47.676 97.1465 44.0076V37.5615C91.7873 41.3506 82.5786 43.3886 72.8868 43.8717C77.3402 46.0305 80.6161 48.929 81.9445 52.5068Z" fill="#02FDEA"/>
</g>
<defs>
<filter id="filter0_d_2430_4624" x="0.853516" y="0.853516" width="117.293" height="117.293" filterUnits="userSpaceOnUse" color-interpolation-filters="sRGB">
<feFlood flood-opacity="0" result="BackgroundImageFix"/>
<feColorMatrix in="SourceAlpha" type="matrix" values="0 0 0 0 0 0 0 0 0 0 0 0 0 0 0 0 0 0 127 0" result="hardAlpha"/>
<feOffset dx="1" dy="1"/>
<feGaussianBlur stdDeviation="10"/>
<feComposite in2="hardAlpha" operator="out"/>
<feColorMatrix type="matrix" values="0 0 0 0 0.00784314 0 0 0 0 0.992157 0 0 0 0 0.917647 0 0 0 1 0"/>
<feBlend mode="normal" in2="BackgroundImageFix" result="effect1_dropShadow_2430_4624"/>
<feBlend mode="normal" in="SourceGraphic" in2="effect1_dropShadow_2430_4624" result="shape"/>
</filter>
</defs>
</svg>
