<svg width="79" height="78" viewBox="0 0 79 78" fill="none" xmlns="http://www.w3.org/2000/svg">
<path d="M0.853516 61.1852V67.6313C0.853516 72.9603 13.8363 77.293 29.8384 77.293C45.8404 77.293 58.8232 72.9603 58.8232 67.6313V61.1852C52.5885 65.5783 41.1908 67.6313 29.8384 67.6313C18.486 67.6313 7.08828 65.5783 0.853516 61.1852ZM49.1616 19.3232C65.1637 19.3232 78.1465 14.9906 78.1465 9.66162C78.1465 4.33263 65.1637 0 49.1616 0C33.1596 0 20.1768 4.33263 20.1768 9.66162C20.1768 14.9906 33.1596 19.3232 49.1616 19.3232ZM0.853516 45.3492V53.1389C0.853516 58.4679 13.8363 62.8005 29.8384 62.8005C45.8404 62.8005 58.8232 58.4679 58.8232 53.1389V45.3492C52.5885 50.482 41.1757 53.1389 29.8384 53.1389C18.5011 53.1389 7.08828 50.482 0.853516 45.3492ZM63.6541 47.0098C72.3042 45.3341 78.1465 42.2243 78.1465 38.6465V32.2004C74.6441 34.6762 69.4963 36.3669 63.6541 37.4086V47.0098ZM29.8384 24.1541C13.8363 24.1541 0.853516 29.5585 0.853516 36.2311C0.853516 42.9036 13.8363 48.3081 29.8384 48.3081C45.8404 48.3081 58.8232 42.9036 58.8232 36.2311C58.8232 29.5585 45.8404 24.1541 29.8384 24.1541ZM62.9445 32.6533C72.0023 31.0229 78.1465 27.8224 78.1465 24.1541V17.7079C72.7873 21.4971 63.5786 23.5351 53.8868 24.0182C58.3402 26.177 61.6161 29.0754 62.9445 32.6533Z" fill="#0070AF"/>
</svg>
