<svg width="117" height="101" viewBox="0 0 117 101" fill="none" xmlns="http://www.w3.org/2000/svg">
<g filter="url(#filter0_d_2430_4617)">
<path d="M96.4602 51.4483V49.5503C96.4602 48.5016 95.6108 47.6523 94.5622 47.6523H59.9995V42.9072H69.8878C71.9839 42.9072 73.6838 41.2073 73.6838 39.1111V23.9269C73.6838 21.8308 71.9839 20.1309 69.8878 20.1309H47.1115C45.0153 20.1309 43.3154 21.8308 43.3154 23.9269V39.1111C43.3154 41.2073 45.0153 42.9072 47.1115 42.9072H56.4995V47.6523H22.4371C21.3884 47.6523 20.5391 48.5016 20.5391 49.5503V51.4483C20.5391 52.497 21.3884 53.3464 22.4371 53.3464H34.7743V58.0914H28.1312C26.035 58.0914 24.3351 59.7913 24.3351 61.8875V77.0717C24.3351 79.1678 26.035 80.8678 28.1312 80.8678H47.1115C49.2076 80.8678 50.9075 79.1678 50.9075 77.0717V61.8875C50.9075 59.7913 49.2076 58.0914 47.1115 58.0914H40.4684V53.3464H76.5309V58.0914H69.8878C67.7917 58.0914 66.0917 59.7913 66.0917 61.8875V77.0717C66.0917 79.1678 67.7917 80.8678 69.8878 80.8678H88.8681C90.9642 80.8678 92.6641 79.1678 92.6641 77.0717V61.8875C92.6641 59.7913 90.9642 58.0914 88.8681 58.0914H82.225V53.3464H94.5622C95.6108 53.3464 96.4602 52.497 96.4602 51.4483ZM47.1115 39.1111V23.9269H69.8878V39.1111H47.1115ZM47.1115 76.6309H28.4995V62.1309H47.1115V76.6309ZM88.8681 76.6309H70.4995V61.8875H88.8681V76.6309Z" fill="#02FDEA"/>
</g>
<defs>
<filter id="filter0_d_2430_4617" x="0.539062" y="0.130859" width="115.921" height="100.736" filterUnits="userSpaceOnUse" color-interpolation-filters="sRGB">
<feFlood flood-opacity="0" result="BackgroundImageFix"/>
<feColorMatrix in="SourceAlpha" type="matrix" values="0 0 0 0 0 0 0 0 0 0 0 0 0 0 0 0 0 0 127 0" result="hardAlpha"/>
<feOffset/>
<feGaussianBlur stdDeviation="10"/>
<feComposite in2="hardAlpha" operator="out"/>
<feColorMatrix type="matrix" values="0 0 0 0 0.00784314 0 0 0 0 0.992157 0 0 0 0 0.917647 0 0 0 1 0"/>
<feBlend mode="normal" in2="BackgroundImageFix" result="effect1_dropShadow_2430_4617"/>
<feBlend mode="normal" in="SourceGraphic" in2="effect1_dropShadow_2430_4617" result="shape"/>
</filter>
</defs>
</svg>
