<svg width="77" height="62" viewBox="0 0 77 62" fill="none" xmlns="http://www.w3.org/2000/svg">
<path d="M76.4607 32.0948V30.1968C76.4607 29.1481 75.6113 28.2988 74.5626 28.2988H40V23.5537H49.8883C51.9844 23.5537 53.6843 21.8538 53.6843 19.7576V4.5734C53.6843 2.47727 51.9844 0.777344 49.8883 0.777344H27.1119C25.0158 0.777344 23.3159 2.47727 23.3159 4.5734V19.7576C23.3159 21.8538 25.0158 23.5537 27.1119 23.5537H36.5V28.2988H2.43758C1.38892 28.2988 0.539551 29.1481 0.539551 30.1968V32.0948C0.539551 33.1435 1.38892 33.9928 2.43758 33.9928H14.7748V38.7379H8.13166C6.03553 38.7379 4.33561 40.4378 4.33561 42.534V57.7182C4.33561 59.8143 6.03553 61.5142 8.13166 61.5142H27.1119C29.2081 61.5142 30.908 59.8143 30.908 57.7182V42.534C30.908 40.4378 29.2081 38.7379 27.1119 38.7379H20.4688V33.9928H56.5314V38.7379H49.8883C47.7921 38.7379 46.0922 40.4378 46.0922 42.534V57.7182C46.0922 59.8143 47.7921 61.5142 49.8883 61.5142H68.8686C70.9647 61.5142 72.6646 59.8143 72.6646 57.7182V42.534C72.6646 40.4378 70.9647 38.7379 68.8686 38.7379H62.2255V33.9928H74.5626C75.6113 33.9928 76.4607 33.1435 76.4607 32.0948ZM27.1119 19.7576V4.5734H49.8883V19.7576H27.1119ZM27.1119 57.2773H8.5V42.7773H27.1119V57.2773ZM68.8686 57.2773H50.5V42.534H68.8686V57.2773Z" fill="#0070AF"/>
</svg>
