<svg width="117" height="91" viewBox="0 0 117 91" fill="none" xmlns="http://www.w3.org/2000/svg">
<g filter="url(#filter0_d_2430_4614)">
<path d="M94.6408 62.3614C91.8064 62.045 89.0907 60.9772 87.0078 59.3425C85.149 57.8792 82.4992 57.8528 80.6536 59.3425C75.6572 63.3501 66.5214 63.3501 61.4459 59.1447C59.6662 57.6682 57.0955 57.9451 55.2895 59.382C50.2799 63.3501 41.1968 63.3369 36.1477 59.1579C34.368 57.6814 31.7578 57.9846 29.9385 59.4216C27.8952 61.0299 25.1927 62.0714 22.332 62.3746C21.2905 62.48 20.5391 63.4028 20.5391 64.4443V68.6892C20.5391 69.8889 21.541 70.904 22.7406 70.7985C26.5373 70.4689 30.1363 69.2956 33.2079 67.3841C40.6563 71.9454 51.2687 71.8795 58.5193 67.3841C65.9677 71.9454 76.58 71.8795 83.8307 67.3841C86.9023 69.2561 90.5408 70.4557 94.2585 70.7853C95.4581 70.8908 96.46 69.8757 96.46 68.676V64.5102C96.4732 63.4556 95.7086 62.48 94.6408 62.3614V62.3614ZM94.6408 43.3779C91.8064 43.0615 89.0907 41.9936 87.0078 40.3589C85.149 38.8956 82.4992 38.8693 80.6536 40.3589C75.6572 44.3666 66.5214 44.3666 61.4459 40.1612C59.6662 38.6847 57.0955 38.9615 55.2895 40.3985C50.2799 44.3666 41.1968 44.3534 36.1477 40.1744C34.368 38.6979 31.7578 39.0011 29.9385 40.438C27.8952 42.0464 25.1927 43.0878 22.332 43.391C21.2905 43.4965 20.5391 44.4193 20.5391 45.4608V49.7057C20.5391 50.9053 21.541 51.9204 22.7406 51.815C26.5373 51.4854 30.1363 50.3121 33.2079 48.4006C40.6563 52.9619 51.2687 52.896 58.5193 48.4006C65.9677 52.9619 76.58 52.896 83.8307 48.4006C86.9023 50.2726 90.5408 51.4722 94.2585 51.8018C95.4581 51.9073 96.46 50.8922 96.46 49.6925V45.5267C96.4732 44.472 95.7086 43.4965 94.6408 43.3779V43.3779ZM94.6408 24.3943C91.8064 24.0647 89.0907 23.0101 87.0078 21.3754C85.149 19.9121 82.4992 19.8857 80.6536 21.3754C75.6572 25.383 66.5214 25.383 61.4459 21.1777C59.6662 19.7012 57.0955 19.978 55.2895 21.415C50.2799 25.383 41.1968 25.3699 36.1477 21.1908C34.368 19.7143 31.7578 20.0176 29.9385 21.4545C27.8952 23.0628 25.1927 24.1043 22.332 24.4075C21.2905 24.513 20.5391 25.4358 20.5391 26.4772V30.7222C20.5391 31.9218 21.541 32.9369 22.7406 32.8314C26.5373 32.5019 30.1363 31.3286 33.2079 29.417C40.6563 33.9784 51.2687 33.9124 58.5193 29.417C65.9677 33.9784 76.58 33.9124 83.8307 29.417C86.9023 31.289 90.5408 32.4887 94.2585 32.8183C95.4581 32.9237 96.46 31.9086 96.46 30.709V26.5431C96.4732 25.4885 95.7086 24.513 94.6408 24.3943V24.3943Z" fill="#02FDEA"/>
</g>
<defs>
<filter id="filter0_d_2430_4614" x="0.539062" y="0.195312" width="115.921" height="90.6113" filterUnits="userSpaceOnUse" color-interpolation-filters="sRGB">
<feFlood flood-opacity="0" result="BackgroundImageFix"/>
<feColorMatrix in="SourceAlpha" type="matrix" values="0 0 0 0 0 0 0 0 0 0 0 0 0 0 0 0 0 0 127 0" result="hardAlpha"/>
<feOffset/>
<feGaussianBlur stdDeviation="10"/>
<feComposite in2="hardAlpha" operator="out"/>
<feColorMatrix type="matrix" values="0 0 0 0 0.00784314 0 0 0 0 0.992157 0 0 0 0 0.917647 0 0 0 1 0"/>
<feBlend mode="normal" in2="BackgroundImageFix" result="effect1_dropShadow_2430_4614"/>
<feBlend mode="normal" in="SourceGraphic" in2="effect1_dropShadow_2430_4614" result="shape"/>
</filter>
</defs>
</svg>
