<svg width="77" height="52" viewBox="0 0 77 52" fill="none" xmlns="http://www.w3.org/2000/svg">
<path d="M74.6412 43.0079C71.8069 42.6915 69.0912 41.6237 67.0083 39.989C65.1495 38.5256 62.4997 38.4993 60.6541 39.989C55.6577 43.9966 46.5219 43.9966 41.4464 39.7912C39.6667 38.3147 37.096 38.5916 35.29 40.0285C30.2804 43.9966 21.1973 43.9834 16.1482 39.8044C14.3685 38.3279 11.7583 38.6311 9.93904 40.0681C7.89567 41.6764 5.19315 42.7178 2.33244 43.021C1.29098 43.1265 0.539551 44.0493 0.539551 45.0908V49.3357C0.539551 50.5354 1.54146 51.5505 2.74111 51.445C6.53782 51.1154 10.1368 49.9421 13.2084 48.0306C20.6568 52.5919 31.2691 52.526 38.5198 48.0306C45.9682 52.5919 56.5805 52.526 63.8312 48.0306C66.9028 49.9026 70.5413 51.1022 74.2589 51.4318C75.4586 51.5373 76.4605 50.5222 76.4605 49.3225V45.1567C76.4737 44.1021 75.7091 43.1265 74.6412 43.0079ZM74.6412 24.0243C71.8069 23.7079 69.0912 22.6401 67.0083 21.0054C65.1495 19.5421 62.4997 19.5157 60.6541 21.0054C55.6577 25.0131 46.5219 25.0131 41.4464 20.8077C39.6667 19.3312 37.096 19.608 35.29 21.045C30.2804 25.0131 21.1973 24.9999 16.1482 20.8209C14.3685 19.3444 11.7583 19.6476 9.93904 21.0845C7.89567 22.6929 5.19315 23.7343 2.33244 24.0375C1.29098 24.143 0.539551 25.0658 0.539551 26.1073V30.3522C0.539551 31.5518 1.54146 32.5669 2.74111 32.4615C6.53782 32.1319 10.1368 30.9586 13.2084 29.0471C20.6568 33.6084 31.2691 33.5425 38.5198 29.0471C45.9682 33.6084 56.5805 33.5425 63.8312 29.0471C66.9028 30.9191 70.5413 32.1187 74.2589 32.4483C75.4586 32.5537 76.4605 31.5387 76.4605 30.339V26.1732C76.4737 25.1185 75.7091 24.143 74.6412 24.0243ZM74.6412 5.0408C71.8069 4.71123 69.0912 3.65659 67.0083 2.02189C65.1495 0.558578 62.4997 0.532212 60.6541 2.02189C55.6577 6.02953 46.5219 6.02953 41.4464 1.82415C39.6667 0.34765 37.096 0.624494 35.29 2.06144C30.2804 6.02953 21.1973 6.01634 16.1482 1.83733C14.3685 0.360833 11.7583 0.664042 9.93904 2.10099C7.89567 3.70932 5.19315 4.75078 2.33244 5.05398C1.29098 5.15945 0.539551 6.08226 0.539551 7.12372V11.3686C0.539551 12.5683 1.54146 13.5834 2.74111 13.4779C6.53782 13.1484 10.1368 11.9751 13.2084 10.0635C20.6568 14.6248 31.2691 14.5589 38.5198 10.0635C45.9682 14.6248 56.5805 14.5589 63.8312 10.0635C66.9028 11.9355 70.5413 13.1352 74.2589 13.4647C75.4586 13.5702 76.4605 12.5551 76.4605 11.3555V7.18963C76.4737 6.13499 75.7091 5.15945 74.6412 5.0408Z" fill="#0070AF"/>
</svg>
