<svg width="77" height="73" viewBox="0 0 77 73" fill="none" xmlns="http://www.w3.org/2000/svg">
<path d="M77 16.0751V18.6465C77 18.9875 76.8648 19.3145 76.6241 19.5557C76.3835 19.7968 76.057 19.9322 75.7167 19.9322H71.8667V21.8608C71.8667 22.9259 71.0047 23.7894 69.9417 23.7894H7.05833C5.99525 23.7894 5.13333 22.9259 5.13333 21.8608V19.9322H1.28333C0.942972 19.9322 0.616551 19.7968 0.37588 19.5557C0.135208 19.3145 0 18.9875 0 18.6465V16.0751C1.8354e-06 15.8207 0.0753121 15.5721 0.216402 15.3606C0.357492 15.1491 0.558022 14.9844 0.792619 14.8871L38.0093 0.744242C38.3235 0.613898 38.6765 0.613898 38.9907 0.744242L76.2074 14.8871C76.442 14.9844 76.6425 15.1491 76.7836 15.3606C76.9247 15.5721 77 15.8207 77 16.0751ZM73.15 66.6465H3.85C1.72368 66.6465 0 66.6591 0 68.7893V71.3608C0 71.7018 0.135208 72.0288 0.37588 72.2699C0.616551 72.511 0.942972 72.6465 1.28333 72.6465H75.7167C76.057 72.6465 76.3835 72.511 76.6241 72.2699C76.8648 72.0288 77 71.7018 77 71.3608V68.7893C77 66.6591 75.2763 66.6465 73.15 66.6465ZM14 26.3608V57.2179H7.05833C5.99525 57.2179 5.13333 58.0814 5.13333 59.1465V62.3608H71.8667V59.1465C71.8667 58.0814 71.0047 57.2179 69.9417 57.2179H62.5V26.3608H56V57.2179H42V26.3608H35.5V57.2179H20.5V26.3608H14Z" fill="#0070AF"/>
</svg>
