<svg width="117" height="113" viewBox="0 0 117 113" fill="none" xmlns="http://www.w3.org/2000/svg">
<g filter="url(#filter0_d_2430_4620)">
<path d="M97 35.9286V38.5C97 38.841 96.8648 39.1681 96.6241 39.4092C96.3835 39.6503 96.057 39.7857 95.7167 39.7857H91.8667V41.7143C91.8667 42.7794 91.0047 43.6429 89.9417 43.6429H27.0583C25.9953 43.6429 25.1333 42.7794 25.1333 41.7143V39.7857H21.2833C20.943 39.7857 20.6166 39.6503 20.3759 39.4092C20.1352 39.1681 20 38.841 20 38.5V35.9286C20 35.6742 20.0753 35.4256 20.2164 35.2141C20.3575 35.0027 20.558 34.8379 20.7926 34.7406L58.0093 20.5978C58.3235 20.4674 58.6765 20.4674 58.9907 20.5978L96.2074 34.7406C96.442 34.8379 96.6425 35.0027 96.7836 35.2141C96.9247 35.4256 97 35.6742 97 35.9286ZM93.15 86.5H23.85C21.7237 86.5 20 86.5126 20 88.6429V91.2143C20 91.5553 20.1352 91.8823 20.3759 92.1234C20.6166 92.3645 20.943 92.5 21.2833 92.5H95.7167C96.057 92.5 96.3835 92.3645 96.6241 92.1234C96.8648 91.8823 97 91.5553 97 91.2143V88.6429C97 86.5126 95.2763 86.5 93.15 86.5ZM34 46.2143V77.0714H27.0583C25.9953 77.0714 25.1333 77.935 25.1333 79V82.2143H91.8667V79C91.8667 77.935 91.0047 77.0714 89.9417 77.0714H82.5V46.2143H76V77.0714H62V46.2143H55.5V77.0714H40.5V46.2143H34Z" fill="#02FDEA"/>
</g>
<defs>
<filter id="filter0_d_2430_4620" x="0" y="0.5" width="117" height="112" filterUnits="userSpaceOnUse" color-interpolation-filters="sRGB">
<feFlood flood-opacity="0" result="BackgroundImageFix"/>
<feColorMatrix in="SourceAlpha" type="matrix" values="0 0 0 0 0 0 0 0 0 0 0 0 0 0 0 0 0 0 127 0" result="hardAlpha"/>
<feOffset/>
<feGaussianBlur stdDeviation="10"/>
<feComposite in2="hardAlpha" operator="out"/>
<feColorMatrix type="matrix" values="0 0 0 0 0.00784314 0 0 0 0 0.992157 0 0 0 0 0.917647 0 0 0 1 0"/>
<feBlend mode="normal" in2="BackgroundImageFix" result="effect1_dropShadow_2430_4620"/>
<feBlend mode="normal" in="SourceGraphic" in2="effect1_dropShadow_2430_4620" result="shape"/>
</filter>
</defs>
</svg>
