<svg width="62" height="38" viewBox="0 0 62 38" fill="none" xmlns="http://www.w3.org/2000/svg">
<path d="M44.95 19C40.6768 19 37.2 15.5418 37.2 11.2917C37.2 7.04148 40.6768 3.58333 44.95 3.58333C49.2232 3.58333 52.7 7.04148 52.7 11.2917C52.7 15.5418 49.2232 19 44.95 19ZM10.85 6.66667H32.55C33.4064 6.66667 34.1 7.35656 34.1 8.20833V22.0833H55.8V2.04167C55.8 1.1899 56.4936 0.5 57.35 0.5H60.45C61.3064 0.5 62 1.1899 62 2.04167V35.9583C62 36.8101 61.3064 37.5 60.45 37.5H57.35C56.4936 37.5 55.8 36.8101 55.8 35.9583V31.3333H6.2V35.9583C6.2 36.8101 5.50638 37.5 4.65 37.5H1.55C0.693626 37.5 0 36.8101 0 35.9583V17.4583C0 11.4979 4.85732 6.66667 10.85 6.66667Z" fill="white"/>
</svg>
