<svg width="78" height="69" viewBox="0 0 78 69" fill="none" xmlns="http://www.w3.org/2000/svg">
<path d="M71.5 0H6.5C2.91146 0 0 2.89746 0 6.46875V49.5938C0 53.165 2.91146 56.0625 6.5 56.0625H32.5L30.3333 62.5312H20.5833C18.7823 62.5312 17.3333 63.9732 17.3333 65.7656C17.3333 67.558 18.7823 69 20.5833 69H57.4167C59.2177 69 60.6667 67.558 60.6667 65.7656C60.6667 63.9732 59.2177 62.5312 57.4167 62.5312H47.6667L45.5 56.0625H71.5C75.0885 56.0625 78 53.165 78 49.5938V6.46875C78 2.89746 75.0885 0 71.5 0ZM69.3333 47.4375H8.66667V8.625H69.3333V47.4375Z" fill="white"/>
</svg>
