<svg width="67" height="59" viewBox="0 0 67 59" fill="none" xmlns="http://www.w3.org/2000/svg">
<path d="M41.9007 28.2184L35.3974 41.0865C34.6122 42.6529 32.3354 42.6011 31.6157 41.0088L24.1703 24.6584L20.2447 33.9404H7.93156L31.812 58.0842C32.7411 59.0292 34.2459 59.0292 35.1749 58.0842L59.0684 33.9404H44.7925L41.9007 28.2184ZM61.9864 6.22369L61.6724 5.90005C54.9335 -0.909392 43.9027 -0.909392 37.1508 5.90005L33.5 9.60252L29.8492 5.91299C23.1104 -0.909392 12.0665 -0.909392 5.32761 5.91299L5.01357 6.22369C-1.35891 12.6707 -1.6337 22.9366 4.05835 29.7978H17.4576L22.1552 18.6386C22.8617 16.9686 25.2433 16.9298 26.0022 18.5868L33.6178 35.3256L40.0295 22.6518C40.8015 21.1242 42.9998 21.1242 43.7719 22.6518L47.3834 29.7978H62.9417C68.6337 22.9366 68.3589 12.6707 61.9864 6.22369Z" fill="white"/>
</svg>
