<svg width="67" height="68" viewBox="0 0 67 68" fill="none" xmlns="http://www.w3.org/2000/svg">
<path d="M54.4375 6.57422V61.0117C54.4375 64.4808 51.6253 67.293 48.1562 67.293H18.8438C15.3747 67.293 12.5625 64.4808 12.5625 61.0117V6.57422C12.5625 3.10514 15.3747 0.292969 18.8438 0.292969H48.1562C51.6253 0.292969 54.4375 3.10514 54.4375 6.57422ZM67 14.1641V15.7344C67 15.9426 66.9173 16.1423 66.77 16.2896C66.6228 16.4368 66.4231 16.5195 66.2148 16.5195H63.8594V17.3047C63.8594 17.5129 63.7767 17.7126 63.6294 17.8599C63.4822 18.0071 63.2825 18.0898 63.0742 18.0898H57.5781V11.8086H63.0742C63.2825 11.8086 63.4822 11.8913 63.6294 12.0386C63.7767 12.1858 63.8594 12.3855 63.8594 12.5938V13.3789H66.2148C66.4231 13.3789 66.6228 13.4616 66.77 13.6089C66.9173 13.7561 67 13.9558 67 14.1641ZM67 26.7266V28.2969C67 28.5051 66.9173 28.7048 66.77 28.8521C66.6228 28.9993 66.4231 29.082 66.2148 29.082H63.8594V29.8672C63.8594 30.0754 63.7767 30.2751 63.6294 30.4224C63.4822 30.5696 63.2825 30.6523 63.0742 30.6523H57.5781V24.3711H63.0742C63.2825 24.3711 63.4822 24.4538 63.6294 24.6011C63.7767 24.7483 63.8594 24.948 63.8594 25.1562V25.9414H66.2148C66.4231 25.9414 66.6228 26.0241 66.77 26.1714C66.9173 26.3186 67 26.5183 67 26.7266ZM67 39.2891V40.8594C67 41.0676 66.9173 41.2673 66.77 41.4146C66.6228 41.5618 66.4231 41.6445 66.2148 41.6445H63.8594V42.4297C63.8594 42.6379 63.7767 42.8376 63.6294 42.9849C63.4822 43.1321 63.2825 43.2148 63.0742 43.2148H57.5781V36.9336H63.0742C63.2825 36.9336 63.4822 37.0163 63.6294 37.1636C63.7767 37.3108 63.8594 37.5105 63.8594 37.7188V38.5039H66.2148C66.4231 38.5039 66.6228 38.5866 66.77 38.7339C66.9173 38.8811 67 39.0808 67 39.2891ZM67 51.8516V53.4219C67 53.6301 66.9173 53.8298 66.77 53.9771C66.6228 54.1243 66.4231 54.207 66.2148 54.207H63.8594V54.9922C63.8594 55.2004 63.7767 55.4001 63.6294 55.5474C63.4822 55.6946 63.2825 55.7773 63.0742 55.7773H57.5781V49.4961H63.0742C63.2825 49.4961 63.4822 49.5788 63.6294 49.7261C63.7767 49.8733 63.8594 50.073 63.8594 50.2812V51.0664H66.2148C66.4231 51.0664 66.6228 51.1491 66.77 51.2964C66.9173 51.4436 67 51.6433 67 51.8516ZM3.92578 49.4961H9.42188V55.7773H3.92578C3.71754 55.7773 3.51784 55.6946 3.37059 55.5474C3.22335 55.4001 3.14062 55.2004 3.14062 54.9922V54.207H0.785156C0.57692 54.207 0.377212 54.1243 0.229967 53.9771C0.0827216 53.8298 0 53.6301 0 53.4219L0 51.8516C0 51.6433 0.0827216 51.4436 0.229967 51.2964C0.377212 51.1491 0.57692 51.0664 0.785156 51.0664H3.14062V50.2812C3.14062 50.073 3.22335 49.8733 3.37059 49.7261C3.51784 49.5788 3.71754 49.4961 3.92578 49.4961ZM3.92578 36.9336H9.42188V43.2148H3.92578C3.71754 43.2148 3.51784 43.1321 3.37059 42.9849C3.22335 42.8376 3.14062 42.6379 3.14062 42.4297V41.6445H0.785156C0.57692 41.6445 0.377212 41.5618 0.229967 41.4146C0.0827216 41.2673 0 41.0676 0 40.8594L0 39.2891C0 39.0808 0.0827216 38.8811 0.229967 38.7339C0.377212 38.5866 0.57692 38.5039 0.785156 38.5039H3.14062V37.7188C3.14062 37.5105 3.22335 37.3108 3.37059 37.1636C3.51784 37.0163 3.71754 36.9336 3.92578 36.9336ZM3.92578 24.3711H9.42188V30.6523H3.92578C3.71754 30.6523 3.51784 30.5696 3.37059 30.4224C3.22335 30.2751 3.14062 30.0754 3.14062 29.8672V29.082H0.785156C0.57692 29.082 0.377212 28.9993 0.229967 28.8521C0.0827216 28.7048 0 28.5051 0 28.2969L0 26.7266C0 26.5183 0.0827216 26.3186 0.229967 26.1714C0.377212 26.0241 0.57692 25.9414 0.785156 25.9414H3.14062V25.1562C3.14062 24.948 3.22335 24.7483 3.37059 24.6011C3.51784 24.4538 3.71754 24.3711 3.92578 24.3711ZM3.92578 11.8086H9.42188V18.0898H3.92578C3.71754 18.0898 3.51784 18.0071 3.37059 17.8599C3.22335 17.7126 3.14062 17.5129 3.14062 17.3047V16.5195H0.785156C0.57692 16.5195 0.377212 16.4368 0.229967 16.2896C0.0827216 16.1423 0 15.9426 0 15.7344L0 14.1641C0 13.9558 0.0827216 13.7561 0.229967 13.6089C0.377212 13.4616 0.57692 13.3789 0.785156 13.3789H3.14062V12.5938C3.14062 12.3855 3.22335 12.1858 3.37059 12.0386C3.51784 11.8913 3.71754 11.8086 3.92578 11.8086Z" fill="white"/>
</svg>
