<svg width="150" height="150" viewBox="0 0 150 150" fill="none" xmlns="http://www.w3.org/2000/svg">
<mask id="path-1-inside-1_2180_4249" fill="white">
<path d="M113.969 24.9275C102.747 16.0751 88.867 11.2659 74.5733 11.2774C60.2796 11.2888 46.4074 16.1202 35.1991 24.9906C23.9908 33.8609 16.1014 46.2519 12.8061 60.1606C9.51076 74.0692 11.0022 88.6827 17.0392 101.639C23.0763 114.595 33.3062 125.137 46.0754 131.56C58.8445 137.983 73.4067 139.913 87.408 137.037C101.409 134.16 114.032 126.646 123.234 115.709C132.437 104.773 137.683 91.0516 138.123 76.7647L135.361 76.6795C134.94 90.345 129.922 103.469 121.12 113.93C112.317 124.391 100.244 131.578 86.8519 134.33C73.4596 137.081 59.5309 135.235 47.3173 129.091C35.1036 122.948 25.3187 112.864 19.5442 100.472C13.7698 88.0791 12.3432 74.1013 15.4952 60.7977C18.6471 47.4941 26.1934 35.6421 36.9141 27.1576C47.6349 18.6731 60.9036 14.0519 74.5755 14.0409C88.2474 14.03 101.524 18.63 112.258 27.0973L113.969 24.9275Z"/>
</mask>
<path d="M113.969 24.9275C102.747 16.0751 88.867 11.2659 74.5733 11.2774C60.2796 11.2888 46.4074 16.1202 35.1991 24.9906C23.9908 33.8609 16.1014 46.2519 12.8061 60.1606C9.51076 74.0692 11.0022 88.6827 17.0392 101.639C23.0763 114.595 33.3062 125.137 46.0754 131.56C58.8445 137.983 73.4067 139.913 87.408 137.037C101.409 134.16 114.032 126.646 123.234 115.709C132.437 104.773 137.683 91.0516 138.123 76.7647L135.361 76.6795C134.94 90.345 129.922 103.469 121.12 113.93C112.317 124.391 100.244 131.578 86.8519 134.33C73.4596 137.081 59.5309 135.235 47.3173 129.091C35.1036 122.948 25.3187 112.864 19.5442 100.472C13.7698 88.0791 12.3432 74.1013 15.4952 60.7977C18.6471 47.4941 26.1934 35.6421 36.9141 27.1576C47.6349 18.6731 60.9036 14.0519 74.5755 14.0409C88.2474 14.03 101.524 18.63 112.258 27.0973L113.969 24.9275Z" fill="#0070AF" stroke="#0070AF" stroke-width="6" mask="url(#path-1-inside-1_2180_4249)"/>
</svg>
