<svg width="150" height="150" viewBox="0 0 150 150" fill="none" xmlns="http://www.w3.org/2000/svg">
<mask id="path-2-inside-2_2180_4249" fill="white">
<path d="M47.0293 93.8527C50.8964 99.4555 56.3773 103.748 62.7433 106.161C69.1094 108.573 76.0589 108.99 82.6678 107.357C89.2767 105.724 95.232 102.118 99.7417 97.0178C104.251 91.918 107.102 85.5663 107.914 78.8072C108.726 72.0481 107.462 65.2018 104.289 59.1788C101.116 53.1558 96.1844 48.2413 90.1505 45.0889C84.1166 41.9364 77.2661 40.6954 70.5098 41.5307C63.7535 42.3661 57.4116 45.2383 52.3272 49.7654L54.5569 52.2695C59.1328 48.1951 64.8406 45.6102 70.9213 44.8583C77.0019 44.1065 83.1674 45.2235 88.5979 48.0606C94.0283 50.8978 98.4665 55.3209 101.322 60.7416C104.178 66.1623 105.316 72.3239 104.585 78.4071C103.854 84.4903 101.289 90.2069 97.2299 94.7967C93.1712 99.3865 87.8115 102.632 81.8634 104.102C75.9154 105.572 69.6608 105.196 63.9314 103.025C58.202 100.854 53.2691 96.9906 49.7888 91.9481L47.0293 93.8527Z"/>
</mask>
<path d="M47.0293 93.8527C50.8964 99.4555 56.3773 103.748 62.7433 106.161C69.1094 108.573 76.0589 108.99 82.6678 107.357C89.2767 105.724 95.232 102.118 99.7417 97.0178C104.251 91.918 107.102 85.5663 107.914 78.8072C108.726 72.0481 107.462 65.2018 104.289 59.1788C101.116 53.1558 96.1844 48.2413 90.1505 45.0889C84.1166 41.9364 77.2661 40.6954 70.5098 41.5307C63.7535 42.3661 57.4116 45.2383 52.3272 49.7654L54.5569 52.2695C59.1328 48.1951 64.8406 45.6102 70.9213 44.8583C77.0019 44.1065 83.1674 45.2235 88.5979 48.0606C94.0283 50.8978 98.4665 55.3209 101.322 60.7416C104.178 66.1623 105.316 72.3239 104.585 78.4071C103.854 84.4903 101.289 90.2069 97.2299 94.7967C93.1712 99.3865 87.8115 102.632 81.8634 104.102C75.9154 105.572 69.6608 105.196 63.9314 103.025C58.202 100.854 53.2691 96.9906 49.7888 91.9481L47.0293 93.8527Z" fill="#0070AF" stroke="#0070AF" stroke-width="6" mask="url(#path-2-inside-2_2180_4249)"/>
</svg>
