<svg width="35" height="35" viewBox="0 0 35 35" fill="none" xmlns="http://www.w3.org/2000/svg">
<path d="M1.39999 4.20006C1.39999 3.41616 1.39999 2.84269 1.39999 2.4484C1.39999 2.06166 1.7136 1.74879 2.10034 1.74898L4.19999 1.75" stroke="white" stroke-width="1.4" stroke-linecap="round"/>
<path d="M1.39999 30.7999C1.39999 31.5839 1.39999 32.1573 1.39999 32.5516C1.39999 32.9384 1.7136 33.2512 2.10034 33.251L4.19999 33.25" stroke="white" stroke-width="1.4" stroke-linecap="round"/>
<path d="M33.6 3.85144C33.6 3.06753 33.6 2.49405 33.6 2.09976C33.6 1.71303 33.2864 1.40016 32.8996 1.40034L30.8 1.40137" stroke="white" stroke-width="1.4" stroke-linecap="round"/>
<path d="M33.6 31.1486C33.6 31.9325 33.6 32.506 33.6 32.9002C33.6 33.287 33.2864 33.5999 32.8996 33.5996L30.8 33.5986" stroke="white" stroke-width="1.4" stroke-linecap="round"/>
<path d="M5.46942 10.5541L17.5 3.60829L29.5305 10.5541V24.4458L17.5 31.3917L5.46942 24.4458V10.5541Z" stroke="white" stroke-width="1.4"/>
<path d="M17.5 17.5V28" stroke="white" stroke-width="1.4" stroke-linecap="round"/>
<path d="M17.5 17.5L26.6 12.6" stroke="white" stroke-width="1.4" stroke-linecap="round"/>
<path d="M17.5 17.5L8.39999 12.6" stroke="white" stroke-width="1.4" stroke-linecap="round"/>
</svg>
