<svg width="245" height="78" viewBox="0 0 245 78" fill="none" xmlns="http://www.w3.org/2000/svg">
<path d="M39.8333 3C39.8333 4.47276 41.0272 5.66667 42.5 5.66667C43.9728 5.66667 45.1667 4.47276 45.1667 3C45.1667 1.52724 43.9728 0.333333 42.5 0.333333C41.0272 0.333333 39.8333 1.52724 39.8333 3ZM0.833333 62.5C0.833333 63.9728 2.02724 65.1667 3.5 65.1667C4.97276 65.1667 6.16667 63.9728 6.16667 62.5C6.16667 61.0272 4.97276 59.8333 3.5 59.8333C2.02724 59.8333 0.833333 61.0272 0.833333 62.5ZM74.3333 3C74.3333 4.47276 75.5272 5.66667 77 5.66667C78.4728 5.66667 79.6667 4.47276 79.6667 3C79.6667 1.52724 78.4728 0.333333 77 0.333333C75.5272 0.333333 74.3333 1.52724 74.3333 3ZM60.3333 62.5C60.3333 63.9728 61.5272 65.1667 63 65.1667C64.4728 65.1667 65.6667 63.9728 65.6667 62.5C65.6667 61.0272 64.4728 59.8333 63 59.8333C61.5272 59.8333 60.3333 61.0272 60.3333 62.5ZM93.8333 3C93.8333 4.47276 95.0272 5.66667 96.5 5.66667C97.9728 5.66667 99.1667 4.47276 99.1667 3C99.1667 1.52724 97.9728 0.333333 96.5 0.333333C95.0272 0.333333 93.8333 1.52724 93.8333 3ZM137.333 3C137.333 4.47276 138.527 5.66667 140 5.66667C141.473 5.66667 142.667 4.47276 142.667 3C142.667 1.52724 141.473 0.333333 140 0.333333C138.527 0.333333 137.333 1.52724 137.333 3ZM239.333 74.5C239.333 75.9728 240.527 77.1667 242 77.1667C243.473 77.1667 244.667 75.9728 244.667 74.5C244.667 73.0272 243.473 71.8333 242 71.8333C240.527 71.8333 239.333 73.0272 239.333 74.5ZM159.333 3C159.333 4.47276 160.527 5.66667 162 5.66667C163.473 5.66667 164.667 4.47276 164.667 3C164.667 1.52724 163.473 0.333333 162 0.333333C160.527 0.333333 159.333 1.52724 159.333 3ZM216.083 3C216.083 4.47276 217.277 5.66667 218.75 5.66667C220.223 5.66667 221.417 4.47276 221.417 3C221.417 1.52724 220.223 0.333333 218.75 0.333333C217.277 0.333333 216.083 1.52724 216.083 3ZM219.629 17.8787L219.982 17.5251L219.629 17.8787ZM227.871 26.1213L227.518 26.4749L227.871 26.1213ZM162.879 27.8787L163.232 27.5251L162.879 27.8787ZM163.621 47.1213L163.268 47.4749L163.621 47.1213ZM140.879 24.3787L141.232 24.0251L140.879 24.3787ZM63.8787 16.1213L63.5251 15.7678L63.8787 16.1213ZM216.379 48.8787L216.732 48.5251L216.379 48.8787ZM4.37868 41.1213L4.73223 41.4749L4.37868 41.1213ZM42.1464 2.64645L4.02513 40.7678L4.73223 41.4749L42.8536 3.35355L42.1464 2.64645ZM3 43.2426V62.5H4V43.2426H3ZM76.6464 2.64645L63.5251 15.7678L64.2322 16.4749L77.3536 3.35355L76.6464 2.64645ZM62.5 18.2426V36.5H63.5V18.2426H62.5ZM62.5 36.5V62.5H63.5V36.5H62.5ZM96.1464 2.64645L62.6464 36.1464L63.3536 36.8536L96.8536 3.35355L96.1464 2.64645ZM139.5 3V22.2574H140.5V3H139.5ZM140.525 24.7322L163.268 47.4749L163.975 46.7678L141.232 24.0251L140.525 24.7322ZM165.743 48.5H183V47.5H165.743V48.5ZM183 48.5H214.257V47.5H183V48.5ZM183.354 47.6464L163.232 27.5251L162.525 28.2322L182.646 48.3536L183.354 47.6464ZM162.5 25.7574V3H161.5V25.7574H162.5ZM216.025 49.2322L228.396 61.6036L229.104 60.8964L216.732 48.5251L216.025 49.2322ZM228.396 61.6036L241.646 74.8536L242.354 74.1464L229.104 60.8964L228.396 61.6036ZM229.25 61.25V39H228.25V61.25H229.25ZM229.25 39V28.2426H228.25V39H229.25ZM228.225 25.7678L219.982 17.5251L219.275 18.2322L227.518 26.4749L228.225 25.7678ZM219.25 15.7574V3H218.25V15.7574H219.25ZM219.982 17.5251C219.513 17.0563 219.25 16.4204 219.25 15.7574H218.25C218.25 16.6856 218.619 17.5759 219.275 18.2322L219.982 17.5251ZM229.25 28.2426C229.25 27.3144 228.881 26.4241 228.225 25.7678L227.518 26.4749C227.987 26.9437 228.25 27.5796 228.25 28.2426H229.25ZM163.232 27.5251C162.763 27.0563 162.5 26.4204 162.5 25.7574H161.5C161.5 26.6856 161.869 27.5759 162.525 28.2322L163.232 27.5251ZM163.268 47.4749C163.924 48.1312 164.814 48.5 165.743 48.5V47.5C165.08 47.5 164.444 47.2366 163.975 46.7678L163.268 47.4749ZM139.5 22.2574C139.5 23.1856 139.869 24.0759 140.525 24.7322L141.232 24.0251C140.763 23.5563 140.5 22.9204 140.5 22.2574H139.5ZM63.5251 15.7678C62.8687 16.4241 62.5 17.3144 62.5 18.2426H63.5C63.5 17.5796 63.7634 16.9437 64.2322 16.4749L63.5251 15.7678ZM214.257 48.5C214.92 48.5 215.556 48.7634 216.025 49.2322L216.732 48.5251C216.076 47.8687 215.186 47.5 214.257 47.5V48.5ZM4.02513 40.7678C3.36875 41.4241 3 42.3144 3 43.2426H4C4 42.5796 4.26339 41.9437 4.73223 41.4749L4.02513 40.7678Z" fill="url(#paint0_linear_2285_4257)"/>
<defs>
<linearGradient id="paint0_linear_2285_4257" x1="102.25" y1="9.5" x2="102.25" y2="63" gradientUnits="userSpaceOnUse">
<stop/>
<stop offset="1" stop-color="white" stop-opacity="0"/>
</linearGradient>
</defs>
</svg>
