<svg width="184" height="87" viewBox="0 0 184 87" fill="none" xmlns="http://www.w3.org/2000/svg">
<path d="M0.833333 3C0.833333 4.47276 2.02724 5.66667 3.5 5.66667C4.97276 5.66667 6.16667 4.47276 6.16667 3C6.16667 1.52724 4.97276 0.333333 3.5 0.333333C2.02724 0.333333 0.833333 1.52724 0.833333 3ZM22.3333 84C22.3333 85.4728 23.5272 86.6667 25 86.6667C26.4728 86.6667 27.6667 85.4728 27.6667 84C27.6667 82.5272 26.4728 81.3333 25 81.3333C23.5272 81.3333 22.3333 82.5272 22.3333 84ZM25.8333 3C25.8333 4.47276 27.0272 5.66667 28.5 5.66667C29.9728 5.66667 31.1667 4.47276 31.1667 3C31.1667 1.52724 29.9728 0.333333 28.5 0.333333C27.0272 0.333333 25.8333 1.52724 25.8333 3ZM51.8333 84C51.8333 85.4728 53.0272 86.6667 54.5 86.6667C55.9728 86.6667 57.1667 85.4728 57.1667 84C57.1667 82.5272 55.9728 81.3333 54.5 81.3333C53.0272 81.3333 51.8333 82.5272 51.8333 84ZM86.3333 84C86.3333 85.4728 87.5272 86.6667 89 86.6667C90.4728 86.6667 91.6667 85.4728 91.6667 84C91.6667 82.5272 90.4728 81.3333 89 81.3333C87.5272 81.3333 86.3333 82.5272 86.3333 84ZM159.833 84C159.833 85.4728 161.027 86.6667 162.5 86.6667C163.973 86.6667 165.167 85.4728 165.167 84C165.167 82.5272 163.973 81.3333 162.5 81.3333C161.027 81.3333 159.833 82.5272 159.833 84ZM178.333 84C178.333 85.4728 179.527 86.6667 181 86.6667C182.473 86.6667 183.667 85.4728 183.667 84C183.667 82.5272 182.473 81.3333 181 81.3333C179.527 81.3333 178.333 82.5272 178.333 84ZM49.3333 9.5C49.3333 10.9728 50.5272 12.1667 52 12.1667C53.4728 12.1667 54.6667 10.9728 54.6667 9.5C54.6667 8.02724 53.4728 6.83333 52 6.83333C50.5272 6.83333 49.3333 8.02724 49.3333 9.5ZM120.333 38C120.333 39.4728 121.527 40.6667 123 40.6667C124.473 40.6667 125.667 39.4728 125.667 38C125.667 36.5272 124.473 35.3333 123 35.3333C121.527 35.3333 120.333 36.5272 120.333 38ZM91.8333 38C91.8333 39.4728 93.0272 40.6667 94.5 40.6667C95.9728 40.6667 97.1667 39.4728 97.1667 38C97.1667 36.5272 95.9728 35.3333 94.5 35.3333C93.0272 35.3333 91.8333 36.5272 91.8333 38ZM122.083 84C122.083 85.4728 123.277 86.6667 124.75 86.6667C126.223 86.6667 127.417 85.4728 127.417 84C127.417 82.5272 126.223 81.3333 124.75 81.3333C123.277 81.3333 122.083 82.5272 122.083 84ZM104.208 21.5C104.208 22.9728 105.402 24.1667 106.875 24.1667C108.348 24.1667 109.542 22.9728 109.542 21.5C109.542 20.0272 108.348 18.8333 106.875 18.8333C105.402 18.8333 104.208 20.0272 104.208 21.5ZM139.879 22.3787L140.232 22.0251L139.879 22.3787ZM41.3787 70.8787L41.0251 71.2322L41.3787 70.8787ZM162.435 66.3873L162.779 66.0245L162.435 66.3873ZM160.621 43.1213L160.268 43.4749L160.621 43.1213ZM24.1213 64.6213L23.7678 64.9749L24.1213 64.6213ZM144.879 66.3787L145.232 66.0251L144.879 66.3787ZM95.4573 56.765L95.1168 57.1312L95.4573 56.765ZM4.37868 44.8787L4.73223 44.5251L4.37868 44.8787ZM3 3V42.7574H4V3H3ZM4.02513 45.2322L23.7678 64.9749L24.4749 64.2678L4.73223 44.5251L4.02513 45.2322ZM24.5 66.7426V84H25.5V66.7426H24.5ZM28 3V42.7574H29V3H28ZM69.0251 57.2322L79.2678 67.4749L79.9749 66.7678L69.7322 56.5251L69.0251 57.2322ZM80 69.2426V74.2574H81V69.2426H80ZM81.0251 76.7322L88.6464 84.3536L89.3536 83.6464L81.7322 76.0251L81.0251 76.7322ZM144.525 66.7322L162.146 84.3536L162.854 83.6464L145.232 66.0251L144.525 66.7322ZM162.091 66.75L180.656 84.3627L181.344 83.6373L162.779 66.0245L162.091 66.75ZM29.0251 45.2322L39.2678 55.4749L39.9749 54.7678L29.7322 44.5251L29.0251 45.2322ZM40 57.2426V68.7574H41V57.2426H40ZM41.0251 71.2322L54.1464 84.3536L54.8536 83.6464L41.7322 70.5251L41.0251 71.2322ZM68 39.2426V54.7574H69V39.2426H68ZM67.9749 36.7678L53.2322 22.0251L52.5251 22.7322L67.2678 37.4749L67.9749 36.7678ZM52.5 20.2574V9.5H51.5V20.2574H52.5ZM143.5 26.5V57.25H144.5V26.5H143.5ZM143.5 57.25V64.2574H144.5V57.25H143.5ZM144.338 56.8814L123.338 37.6314L122.662 38.3686L143.662 57.6186L144.338 56.8814ZM95 54.5679V38H94V54.5679H95ZM95.1168 57.1312L124.41 84.3662L125.09 83.6338L95.7977 56.3988L95.1168 57.1312ZM106.875 22H137.757V21H106.875V22ZM139.525 22.7322L160.268 43.4749L160.975 42.7678L140.232 22.0251L139.525 22.7322ZM162 64.2109V45.2426H161V64.2109H162ZM137.757 22C138.42 22 139.056 22.2634 139.525 22.7322L140.232 22.0251C139.576 21.3687 138.686 21 137.757 21V22ZM53.2322 22.0251C52.7634 21.5563 52.5 20.9204 52.5 20.2574H51.5C51.5 21.1856 51.8687 22.0759 52.5251 22.7322L53.2322 22.0251ZM40 68.7574C40 69.6856 40.3687 70.5759 41.0251 71.2322L41.7322 70.5251C41.2634 70.0563 41 69.4204 41 68.7574H40ZM162.779 66.0245C162.282 65.5525 162 64.8967 162 64.2109H161C161 65.1711 161.394 66.0891 162.091 66.75L162.779 66.0245ZM80 74.2574C80 75.1856 80.3687 76.0759 81.0251 76.7322L81.7322 76.0251C81.2634 75.5563 81 74.9204 81 74.2574H80ZM79.2678 67.4749C79.7366 67.9437 80 68.5796 80 69.2426H81C81 68.3144 80.6313 67.4241 79.9749 66.7678L79.2678 67.4749ZM39.2678 55.4749C39.7366 55.9437 40 56.5796 40 57.2426H41C41 56.3144 40.6313 55.4241 39.9749 54.7678L39.2678 55.4749ZM160.268 43.4749C160.737 43.9437 161 44.5796 161 45.2426H162C162 44.3144 161.631 43.4241 160.975 42.7678L160.268 43.4749ZM28 42.7574C28 43.6856 28.3687 44.5759 29.0251 45.2322L29.7322 44.5251C29.2634 44.0563 29 43.4204 29 42.7574H28ZM69 39.2426C69 38.3144 68.6313 37.4241 67.9749 36.7678L67.2678 37.4749C67.7366 37.9437 68 38.5796 68 39.2426H69ZM69.7322 56.5251C69.2634 56.0563 69 55.4204 69 54.7574H68C68 55.6856 68.3687 56.5759 69.0251 57.2322L69.7322 56.5251ZM23.7678 64.9749C24.2366 65.4437 24.5 66.0796 24.5 66.7426H25.5C25.5 65.8144 25.1312 64.9241 24.4749 64.2678L23.7678 64.9749ZM145.232 66.0251C144.763 65.5563 144.5 64.9204 144.5 64.2574H143.5C143.5 65.1856 143.869 66.0759 144.525 66.7322L145.232 66.0251ZM94 54.5679C94 55.5404 94.4046 56.469 95.1168 57.1312L95.7977 56.3988C95.289 55.9258 95 55.2625 95 54.5679H94ZM3 42.7574C3 43.6856 3.36875 44.5759 4.02513 45.2322L4.73223 44.5251C4.26339 44.0563 4 43.4204 4 42.7574H3Z" fill="url(#paint0_linear_2285_4254)"/>
<defs>
<linearGradient id="paint0_linear_2285_4254" x1="92.25" y1="30.5" x2="92.25" y2="84" gradientUnits="userSpaceOnUse">
<stop stop-color="white" stop-opacity="0"/>
<stop offset="1"/>
</linearGradient>
</defs>
</svg>
